<?xml version="1.0" encoding="UTF-8"?>
<svg width="24px" height="24px" viewBox="0 0 24 24" version="1.1" xmlns="http://www.w3.org/2000/svg" xmlns:xlink="http://www.w3.org/1999/xlink">
    <title>2. Icons/3. Social/Instagram</title>
    <g id="2.-Icons/3.-Social/Instagram" stroke="none" stroke-width="1" fill="none" fill-rule="evenodd">
        <path d="M11.999,1.999 L12.2794247,1.99901572 L12.2794247,1.99901572 L13.4468981,2.00084904 C14.3014485,2.00374065 14.7869556,2.01033744 15.2141099,2.02312079 L15.4082459,2.02946911 C15.6325438,2.03740906 15.8537817,2.04725343 16.120465,2.05938961 C17.1851151,2.10814266 17.912244,2.2766949 18.5497839,2.52400206 C19.2081585,2.77922633 19.7644433,3.12091442 20.3207281,3.67719928 C20.877013,4.23306744 21.2187011,4.79101901 21.4749671,5.44876855 C21.7208159,6.08464175 21.8895764,6.81135389 21.9395795,7.87600393 C21.9806536,8.79034694 21.9957055,9.17139122 21.9991678,10.9719705 L21.9991678,13.0271745 C21.9967154,14.3024609 21.9884479,14.8652959 21.9692363,15.4100826 L21.961993,15.6027416 C21.9555643,15.7645508 21.9481366,15.9318657 21.9395795,16.1223538 C21.8895764,17.1865871 21.7208159,17.9135077 21.4749671,18.5495892 C21.2187011,19.2071303 20.877013,19.765082 20.3207281,20.3209501 C19.7650684,20.877235 19.2079501,21.2197565 18.5504089,21.4751891 C17.9141191,21.7224963 17.1865735,21.8910485 16.1219235,21.9398016 C15.1313853,21.9848787 14.7676305,21.9983383 12.5459681,22.0000312 L11.4524333,22.0000312 C9.23100182,21.9983383 8.86652856,21.9848787 7.87599029,21.9398016 C6.81154864,21.8910485 6.08462812,21.7224963 5.44833827,21.4751891 C4.79100538,21.2197565 4.2330538,20.877235 3.67739397,20.3209501 C3.12131749,19.765082 2.7796294,19.2071303 2.52398843,18.5493808 C2.27688958,17.9135077 2.10833734,17.1867955 2.05937597,16.1221454 C2.02139738,15.2839977 2.00579904,14.8946122 2.00085796,13.448799 L1.99900285,12.2816447 L1.99900285,12.2816447 L1.99895551,11.9995956 C1.99895551,11.9025955 1.99897145,11.8086246 1.99900438,11.7175417 L2.00090101,10.5502446 C2.00592979,9.10410064 2.02168014,8.71394332 2.05916759,7.8757956 C2.10708728,6.81156228 2.27584784,6.08464175 2.52378004,5.44856022 C2.78004611,4.79101901 3.12173414,4.23306744 3.678019,3.67719928 C4.23388716,3.12112274 4.79183879,2.77943471 5.44958833,2.52400206 C6.08546147,2.2766949 6.81217367,2.10814266 7.87682371,2.05938961 C8.10540945,2.04898717 8.30066402,2.04026851 8.49310045,2.03298967 L8.68572761,2.02618174 C9.13827296,2.01137426 9.63085058,2.00396308 10.5510889,2.00084904 L11.7183622,1.99901572 L11.7183622,1.99901572 L11.999,1.999 Z M11.1032758,3.79866519 C9.23940905,3.80074867 8.88188663,3.81324945 7.95932883,3.85491875 C6.98426779,3.89971322 6.45485964,4.06222339 6.10233754,4.19973201 C5.63564161,4.38141006 5.30228745,4.59809025 4.95226548,4.94811222 C4.60224358,5.29813412 4.38514662,5.63148834 4.20388528,6.09818427 C4.06700169,6.45070631 3.90407487,6.97990613 3.85948873,7.95496724 C3.81866825,8.8530173 3.80566618,9.2146563 3.80270963,10.9529135 L3.802026,11.7076085 L3.802026,11.7076085 L3.8019851,11.9948036 C3.8019851,12.0937141 3.80199825,12.1893957 3.802026,12.2820054 L3.80270963,13.0367926 C3.80566618,14.7754081 3.81866825,15.1382566 3.85948873,16.0363068 C3.90386649,17.0113678 4.06700169,17.5405676 4.20388528,17.892673 C4.38556333,18.3595773 4.60224358,18.6920981 4.95226548,19.04212 C5.30228745,19.3921419 5.63564161,19.6088222 6.10233754,19.7900835 C6.45506796,19.9269671 6.98426779,20.089894 7.95932883,20.1348968 C8.15455712,20.1437708 8.32448518,20.1513587 8.48874703,20.1578326 L8.68439806,20.1650774 C9.27073129,20.1852738 9.88541333,20.1919234 11.4444892,20.1930513 L12.5563017,20.1930513 C14.1152776,20.1919234 14.7300242,20.1852738 15.3164015,20.1650774 L15.5120661,20.1578326 C15.6763383,20.1513587 15.8462735,20.1437708 16.0415018,20.1348968 C17.0165628,20.0903107 17.5461794,19.9278005 17.8982847,19.7902919 C18.365189,19.6090305 18.6975015,19.3923503 19.0475234,19.0423284 C19.3975453,18.6925148 19.6146422,18.3602023 19.7959036,17.8935064 C19.9327872,17.541401 20.0957141,17.0122012 20.1403002,16.0371401 C20.1527238,15.7638205 20.1626267,15.5400754 20.1704808,15.3120616 L20.1767222,15.11432 C20.1911264,14.6110734 20.1967423,14.0175863 20.1982142,12.8040615 L20.1982142,11.190546 C20.1958592,9.24890629 20.1828954,8.89456308 20.1403002,7.95746737 C20.0959224,6.98240633 19.9327872,6.4532065 19.7959036,6.10110111 C19.6142255,5.63440518 19.3975453,5.30105096 19.0475234,4.95102906 C18.6977098,4.60100715 18.3649807,4.3843269 17.8982847,4.20306556 C17.5457626,4.06618197 17.0165628,3.90325509 16.0415018,3.85866895 C15.1432742,3.81784852 14.7805506,3.80484645 13.0422335,3.80188991 L11.5265315,3.80100912 C11.3772513,3.80095703 11.2364091,3.80095703 11.1032758,3.80116538 L11.1032758,3.80116538 Z M12.000207,6.8638572 C14.8364263,6.8638572 17.1353203,9.16337622 17.1353203,11.9995956 C17.1353203,14.8358149 14.8366347,17.1342922 12.0004153,17.1342922 C9.164196,17.1342922 6.86467698,14.8358149 6.86467698,11.9995956 C6.86467698,9.16337622 9.164196,6.8638572 12.0004153,6.8638572 Z M12.0004153,8.66605344 C10.1592583,8.66605344 8.66687316,10.1584386 8.66687316,11.9995956 C8.66687316,13.8405442 10.1592583,15.3331377 12.0004153,15.3331377 C13.8413639,15.3331377 15.3339574,13.8405442 15.3339574,11.9995956 C15.3339574,10.1584386 13.8413639,8.66605344 12.0004153,8.66605344 Z M17.3386663,5.46126933 C18.0012079,5.46126933 18.5387415,5.99880302 18.5387415,6.6613445 C18.5387415,7.32388603 18.0012079,7.86141967 17.3386663,7.86141967 C16.6761249,7.86141967 16.1385912,7.32388603 16.1385912,6.6613445 C16.1385912,5.9985947 16.6761249,5.46168604 17.3386663,5.46168604 Z" id="Icon_social" fill="#1B2437"></path>
    </g>
</svg>