<?xml version="1.0" encoding="UTF-8"?>
<svg width="24px" height="24px" viewBox="0 0 24 24" version="1.1" xmlns="http://www.w3.org/2000/svg" xmlns:xlink="http://www.w3.org/1999/xlink">
    <title>2. Icons/3. Social/WhatsApp</title>
    <g id="2.-Icons/3.-Social/WhatsApp" stroke="none" stroke-width="1" fill="none" fill-rule="evenodd">
        <path d="M12.0417728,2 C14.7057055,2.00114973 17.2059927,3.0382094 19.0860945,4.92051483 C20.9661963,6.80272447 22.0010523,9.30464052 22,11.9654114 C21.9978321,17.3616793 17.6824151,21.7695588 12.3201444,21.9195581 L12.0418687,21.9235028 C10.4996338,21.9229722 8.98562106,21.566631 7.61781872,20.8878101 L7.27898247,20.7114058 L2,22.0961928 L3.41274471,16.9359682 C2.54129458,15.4257357 2.0827425,13.7126519 2.0834898,11.9575549 C2.08567431,6.46700227 6.55291612,2 12.0417728,2 Z M12.0451262,3.68196436 C7.47964926,3.68196436 3.76663269,7.39464566 3.76482115,11.9581298 C3.7642257,13.4103637 4.14149173,14.8273715 4.85875479,16.0774777 L5.03029525,16.362941 L5.2270913,16.6760997 L4.39094755,19.7303861 L7.5235691,18.9086332 L7.82580529,19.0880108 C8.9988431,19.7841125 10.330291,20.1776561 11.6963508,20.2345345 L12.0385153,20.2417205 C16.6038198,20.2417205 20.3167885,16.5286655 20.3186095,11.9648365 C20.3194712,9.75322824 19.4593747,7.67374348 17.8966952,6.10924354 C16.3340157,4.5447436 14.2558722,3.68273087 12.0451262,3.68196436 Z M8.51622032,7.35881231 C8.68207894,7.35881231 8.84813881,7.36034525 8.99311062,7.36762689 C9.14583354,7.3752918 9.3509556,7.30956536 9.55294461,7.79475293 C9.76028948,8.29297082 10.2579038,9.51772447 10.3201043,9.64227894 C10.3823241,9.76683341 10.4237816,9.91208306 10.3408474,10.0782196 C10.2579038,10.2441644 10.2164367,10.3480237 10.0920355,10.4932734 C9.96763435,10.6385231 9.83073942,10.8176899 9.71879369,10.929214 C9.59422967,11.0532894 9.46455888,11.1879041 9.60970313,11.437013 C9.75484743,11.6861219 10.254215,12.5008998 10.9939153,13.1607031 C11.9443329,14.00844 12.7460805,14.2711637 12.994902,14.395699 C13.2436277,14.5202918 13.3887815,14.4994433 13.5339354,14.3334314 C13.6790893,14.1673715 14.1559412,13.6068476 14.3217903,13.3577866 C14.4876394,13.1087735 14.6535843,13.1502501 14.8816147,13.2332513 C15.109741,13.3163675 16.3330575,13.9182434 16.581879,14.0427787 C16.8307006,14.1673715 16.9965496,14.2296392 17.058731,14.3334314 C17.1209125,14.4371757 17.1209125,14.9353648 16.913673,15.5166796 C16.7062419,16.0978795 15.7122014,16.6283474 15.2341039,16.6997555 C14.8054449,16.7638531 14.2629623,16.7905844 13.6669213,16.6011563 C13.3055216,16.486499 12.8420832,16.3334025 12.2484375,16.0770215 C9.75237549,14.9992325 8.12224495,12.486049 7.99784377,12.3199126 C7.87342344,12.1538719 6.9818434,10.9707003 6.9818434,9.74594655 C6.9818434,8.52128869 7.62463068,7.9193074 7.85269947,7.67019846 C8.08076831,7.42108951 8.35035209,7.35881231 8.51622032,7.35881231 Z" id="Icon" fill="#1B2437"></path>
    </g>
</svg>