<svg xmlns="http://www.w3.org/2000/svg" width="24" height="24" viewBox="0 0 24 24">
    <g fill="none" fill-rule="evenodd">
        <g fill="#F79DB8">
            <g>
                <path d="M21.923 7.839c-1.155-1.69-3.164-2.653-3.883-2.957-.139-1.33-1.006-2.492-2.255-2.838-.612-.17-1.263-.12-1.838.128-.4-.518-.942-.899-1.563-1.07-.243-.068-.492-.102-.74-.102C10.262 1 9.06 2.028 8.72 3.5c-.342 1.488.25 3.036.987 4.277l-8.043 3.252c-.462.186-.736.71-.65 1.242l.006.02c-.01.076-.021.152-.021.23v8.918C1 22.3 1.638 23 2.422 23h19.094c.784 0 1.422-.7 1.422-1.56V12.52c0-.076-.01-.15-.02-.222.067-.342.398-2.42-.995-4.46zM3.03 13.189h17.876v2.75c-.197.144-.796.496-1.98.496-.836 0-1.515-.18-2.233-.372-.78-.207-1.586-.421-2.615-.421-1.043 0-1.793.228-2.454.429-.617.187-1.199.363-2.02.363-.805 0-1.267-.163-1.802-.353-.581-.206-1.24-.44-2.3-.44-1.156 0-1.96.276-2.472.545V13.19zm7.66-9.143c.11-.481.502-.817.953-.817.081 0 .163.011.243.034.348.096.621.394.712.777.093.394.375.7.734.8.36.099.74-.024.992-.322.243-.286.616-.41.963-.313.526.146.847.735.714 1.313-.275 1.194-2.175 2.18-3.431 2.63-.912-1.048-2.157-2.902-1.88-4.102zm.349 5.568c.27.315.482.533.56.611.19.188.434.29.684.29.08 0 .163-.011.244-.033.426-.116 3.774-1.092 5.049-3.402.77.358 2.035 1.093 2.72 2.097.446.65.608 1.294.658 1.783H7.71l3.329-1.346zM3.03 20.77v-2.553c.15-.03.293-.107.411-.233.024-.022.607-.558 2.061-.558.804 0 1.266.164 1.801.353.582.206 1.241.44 2.3.44 1.043 0 1.793-.228 2.455-.429.616-.187 1.198-.363 2.02-.363.836 0 1.514.18 2.233.371.78.207 1.585.421 2.615.421.837 0 1.489-.145 1.98-.327v2.879H3.031z" transform="translate(-1058 -50) translate(1058 50)"/>
            </g>
        </g>
    </g>
</svg>
