<svg xmlns="http://www.w3.org/2000/svg" width="24" height="24" viewBox="0 0 24 24">
    <g fill="none" fill-rule="evenodd">
        <g fill="#F79DB8">
            <g>
                <path d="M6.632 6.79c0 3.192 2.597 5.789 5.79 5.789 3.191 0 5.789-2.597 5.789-5.79C18.21 3.597 15.613 1 12.42 1s-5.79 2.597-5.79 5.79zm2.315 0c0-1.916 1.559-3.474 3.474-3.474 1.915 0 3.474 1.558 3.474 3.473 0 1.916-1.559 3.474-3.474 3.474-1.915 0-3.474-1.558-3.474-3.474zm13.895 15.052c0-4.468-3.637-8.105-8.105-8.105h-4.632C5.635 13.737 2 17.374 2 21.842V23h2.316v-1.158c0-3.192 2.597-5.79 5.79-5.79h4.63c3.193 0 5.79 2.598 5.79 5.79V23h2.316v-1.158z" transform="translate(-1349 -50) translate(1349 50)"/>
            </g>
        </g>
    </g>
</svg>
