<svg xmlns="http://www.w3.org/2000/svg" width="24" height="24" viewBox="0 0 24 24">
    <g fill="none" fill-rule="evenodd">
        <g fill="#F79DB8">
            <g>
                <path d="M16.723 14.836h-.993l-.353-.34c1.233-1.433 1.975-3.295 1.975-5.32C17.352 4.66 13.692 1 9.176 1S1 4.66 1 9.176s3.66 8.176 8.176 8.176c2.025 0 3.887-.742 5.32-1.975l.34.353v.993L21.126 23 23 21.126l-6.277-6.29zm-7.547 0c-3.132 0-5.66-2.528-5.66-5.66s2.528-5.66 5.66-5.66 5.66 2.528 5.66 5.66-2.528 5.66-5.66 5.66z" transform="translate(-1158 -50) translate(1158 50)"/>
            </g>
        </g>
    </g>
</svg>
