<svg xmlns="http://www.w3.org/2000/svg" width="205" height="80" viewBox="0 0 205 80">
    <g fill="none" fill-rule="evenodd">
        <g>
            <g>
                <path fill="#040007" d="M41.778 70.067h.889c.23 0 .44-.043.627-.13.187-.085.346-.198.477-.34.132-.14.233-.3.305-.482.071-.18.107-.365.107-.551 0-.19-.036-.374-.107-.555-.072-.18-.174-.342-.306-.484-.132-.142-.293-.256-.484-.342-.19-.086-.405-.13-.644-.13h-.864v3.014zm.885-3.35c.28 0 .533.052.762.155.228.105.424.243.586.415.164.172.288.37.378.591.088.222.132.45.132.686 0 .231-.044.457-.131.678-.088.22-.211.417-.372.592s-.356.314-.585.42c-.23.107-.486.16-.77.16h-.885v.87c0 .075-.038.113-.114.113h-.116c-.076 0-.114-.038-.114-.113v-4.45c0-.066.028-.101.085-.108l.019-.01h1.125zM49.006 69.866c0-.173-.027-.336-.083-.489-.055-.154-.134-.288-.235-.404-.101-.115-.222-.206-.363-.274-.14-.067-.295-.1-.463-.1-.17 0-.326.033-.468.1-.142.068-.264.159-.366.273-.102.114-.181.248-.239.402-.058.153-.087.316-.087.488s.029.335.087.488c.058.152.138.285.24.398.104.113.226.203.368.27.142.066.298.1.465.1.166 0 .32-.034.46-.099s.262-.154.363-.266c.1-.113.18-.245.237-.397.056-.153.084-.316.084-.49zm.36 1.424c0 .036-.012.064-.035.084-.023.02-.054.03-.094.03h-.101c-.084 0-.126-.042-.126-.126v-.55c-.038.119-.094.223-.167.314-.074.092-.16.17-.26.232-.1.064-.212.112-.333.146-.121.033-.251.05-.388.05-.214 0-.414-.042-.599-.126-.185-.084-.345-.199-.48-.344-.136-.145-.243-.315-.32-.51-.079-.196-.117-.405-.117-.628 0-.223.038-.432.115-.629.077-.196.182-.368.318-.515.136-.147.296-.263.481-.347.184-.083.386-.126.602-.126.139 0 .271.018.396.054.125.036.238.086.339.15.1.067.187.143.258.233.071.09.123.187.155.295l.013-.54c.001-.041.012-.074.03-.096.02-.022.05-.033.092-.033h.092c.037 0 .069.011.093.033.024.022.036.055.036.097v2.852zM53.054 68.939c-.066-.11-.157-.198-.27-.268-.114-.07-.243-.104-.389-.104-.09 0-.173.012-.249.038-.075.025-.14.06-.195.107-.055.046-.097.102-.128.166-.03.064-.045.134-.045.212 0 .076.02.142.058.2.039.058.088.108.147.148.059.042.123.076.193.103.07.027.138.05.2.066l.095.025c.154.042.292.094.415.155.123.06.227.13.314.21.086.078.151.166.198.262.046.097.07.2.07.313 0 .142-.03.27-.089.38-.058.112-.138.206-.238.282-.1.075-.215.133-.347.171-.13.04-.269.059-.414.059-.12 0-.235-.014-.346-.042-.11-.026-.212-.067-.305-.12-.094-.054-.175-.121-.243-.203-.068-.08-.119-.173-.153-.278-.007-.015-.009-.029-.009-.041 0-.017.006-.035.02-.056.014-.02.032-.035.055-.045l.12-.054c.02-.006.035-.01.047-.01.022 0 .039.007.055.02.013.012.026.028.036.047l.016.031c.034.068.079.128.135.18.055.053.116.097.182.133.067.035.134.062.202.08.069.018.131.027.188.027.076 0 .156-.011.243-.034.085-.021.165-.055.239-.1.074-.046.134-.103.182-.172.049-.07.073-.153.073-.249 0-.09-.024-.17-.073-.238-.048-.068-.11-.127-.186-.176-.074-.05-.159-.092-.251-.125-.093-.034-.183-.06-.271-.082-.11-.032-.219-.074-.327-.126-.108-.053-.204-.115-.29-.188-.085-.072-.154-.155-.207-.247-.051-.092-.078-.193-.078-.303 0-.128.023-.244.07-.35.046-.105.11-.195.193-.27.083-.077.184-.135.303-.176.119-.041.25-.061.395-.061.21 0 .4.045.57.135.17.091.308.231.418.423.01.025.015.046.015.063 0 .014-.004.03-.012.046-.009.015-.021.029-.039.04l-.11.065c-.03.02-.054.028-.076.028s-.04-.006-.05-.018l-.041-.054-.019-.025h.003zM56.61 71.076c.036 0 .067.01.094.03.026.02.039.051.039.093v.104c0 .049-.014.08-.043.098-.028.016-.063.025-.105.025H56.5c-.107 0-.206-.007-.299-.021-.092-.013-.173-.046-.24-.096s-.12-.126-.159-.225c-.039-.1-.059-.236-.059-.409V68.65h-.434c-.043 0-.074-.009-.093-.025-.02-.017-.03-.047-.03-.089v-.116c0-.042.01-.072.03-.088.02-.017.05-.026.093-.026h.434v-.93c0-.063.035-.1.105-.11l.157-.022c.042 0 .07.013.085.038s.022.056.022.094v.93h.546c.038 0 .068.01.09.029.022.018.033.049.033.091v.104c0 .042-.011.073-.033.091-.022.02-.052.03-.09.03h-.546v1.94c0 .112.008.198.023.26.014.063.038.11.069.14.032.032.07.052.118.062.047.01.105.018.172.024h.117zM61.138 69.667c-.017-.15-.058-.29-.125-.421-.066-.131-.15-.245-.256-.342-.103-.096-.222-.173-.355-.228-.134-.056-.275-.084-.425-.084-.149 0-.29.027-.425.082-.135.055-.255.13-.361.227-.107.097-.195.21-.266.342-.072.131-.12.273-.142.424h2.355zm-1.104 1.456c.139 0 .272-.02.4-.061.129-.04.246-.102.354-.181l.091-.07c.034-.025.062-.04.085-.044.017 0 .035.008.054.025.018.017.037.037.054.061.016.025.03.052.042.081.012.03.017.056.017.082-.019.032-.043.06-.074.089-.03.026-.06.05-.09.071-.132.091-.275.162-.428.214-.154.051-.32.077-.499.077-.222 0-.432-.042-.629-.126-.196-.084-.367-.199-.513-.344-.146-.145-.261-.315-.346-.51-.084-.196-.125-.405-.125-.628 0-.223.04-.432.123-.629.081-.196.192-.367.333-.514.141-.146.306-.26.494-.344.188-.084.39-.127.604-.127.206 0 .4.04.581.12.182.08.341.19.478.331.136.14.245.307.325.5.08.192.12.4.12.622 0 .067-.02.11-.06.13-.04.021-.09.031-.152.031h-2.49c.012.162.054.313.124.452.07.14.162.26.274.363.113.102.242.182.389.241.145.06.3.088.464.088zM63.53 66.83c0-.036.012-.063.034-.084.022-.02.05-.03.086-.03h.098c.038 0 .066.01.084.03.018.02.028.048.033.084l.01.17c.004.061.006.123.006.186v4.098c0 .075-.04.113-.117.113h-.11c-.082 0-.124-.038-.124-.113V66.83zM68.638 69.667c-.017-.15-.058-.29-.125-.421s-.151-.245-.255-.342c-.104-.096-.223-.173-.356-.228-.134-.056-.275-.084-.424-.084-.15 0-.291.027-.426.082-.135.055-.255.13-.36.227-.107.097-.196.21-.268.342-.071.131-.118.273-.141.424h2.355zm-1.103 1.456c.138 0 .271-.02.4-.061.128-.04.246-.102.353-.181l.091-.07c.034-.025.062-.04.085-.044.017 0 .035.008.054.025.019.017.037.037.054.061.016.025.031.052.042.081.012.03.017.056.017.082-.019.032-.044.06-.074.089-.03.026-.06.05-.09.071-.132.091-.275.162-.428.214-.153.051-.32.077-.498.077-.223 0-.433-.042-.63-.126-.195-.084-.367-.199-.513-.344-.146-.145-.261-.315-.346-.51-.084-.196-.126-.405-.126-.628 0-.223.042-.432.123-.629.082-.196.194-.367.335-.514.14-.146.305-.26.493-.344.189-.084.39-.127.604-.127.206 0 .4.04.581.12.182.08.341.19.478.331.137.14.245.307.325.5.08.192.12.4.12.622 0 .067-.02.11-.06.13-.04.021-.09.031-.152.031h-2.49c.012.162.054.313.124.452.07.14.162.26.274.363.113.102.242.182.388.241.146.06.302.088.466.088zM72.5 68.939c-.067-.11-.158-.198-.271-.268-.113-.07-.243-.104-.388-.104-.09 0-.173.012-.25.038-.075.025-.14.06-.195.107-.054.046-.097.102-.127.166-.031.064-.046.134-.046.212 0 .076.02.142.058.2.04.058.088.108.147.148.059.042.123.076.194.103.07.027.137.05.2.066l.094.025c.154.042.293.094.415.155.123.06.228.13.314.21.086.078.152.166.198.262.046.097.07.2.07.313 0 .142-.03.27-.089.38-.058.112-.138.206-.238.282-.1.075-.215.133-.347.171-.13.04-.269.059-.414.059-.12 0-.235-.014-.345-.042-.11-.026-.212-.067-.306-.12-.094-.054-.174-.121-.243-.203-.068-.08-.119-.173-.153-.278-.007-.015-.009-.029-.009-.041 0-.017.006-.035.02-.056.014-.02.032-.035.055-.045l.12-.054c.02-.006.035-.01.048-.01.02 0 .039.007.054.02.014.012.027.028.037.047l.016.031c.033.068.078.128.134.18.055.053.117.097.182.133.067.035.134.062.203.08.068.018.13.027.187.027.076 0 .156-.011.243-.034.086-.021.165-.055.24-.1.073-.046.134-.103.182-.172.048-.07.072-.153.072-.249 0-.09-.024-.17-.072-.238-.048-.068-.11-.127-.186-.176-.075-.05-.16-.092-.252-.125-.093-.034-.183-.06-.271-.082-.11-.032-.219-.074-.327-.126-.107-.053-.204-.115-.29-.188-.084-.072-.154-.155-.206-.247-.052-.092-.078-.193-.078-.303 0-.128.022-.244.069-.35.046-.105.11-.195.193-.27.083-.077.185-.135.303-.176.119-.041.25-.061.396-.061.21 0 .4.045.569.135.17.091.308.231.418.423.01.025.015.046.015.063 0 .014-.004.03-.012.046-.009.015-.021.029-.039.04l-.11.065c-.029.02-.054.028-.076.028s-.04-.006-.05-.018c-.01-.013-.024-.03-.04-.054l-.02-.025h.004zM78.915 72.542c-.034.06-.09.091-.167.091h-.101c-.046 0-.08-.013-.1-.04-.02-.028-.02-.066-.004-.114l.492-1.173-1.185-2.85c-.021-.054-.022-.094-.003-.12.018-.024.052-.037.1-.037h.132c.038 0 .066.01.082.029.018.018.034.044.051.075l1.034 2.474 1.009-2.49c.032-.059.088-.088.167-.088h.101c.046 0 .08.013.099.04.02.025.022.063.005.111l-1.712 4.092zM86.09 69.825c0 .172.031.335.092.488.06.154.144.287.249.402.105.114.227.205.366.27.139.067.286.1.442.1.154 0 .302-.033.44-.1.14-.065.26-.156.365-.27.104-.115.186-.248.245-.402.061-.153.09-.316.09-.488 0-.173-.029-.336-.09-.489-.06-.153-.141-.287-.245-.402-.105-.115-.225-.205-.364-.27-.139-.067-.287-.1-.441-.1-.156 0-.303.033-.442.1-.139.065-.26.155-.366.27-.105.115-.188.249-.25.402-.06.153-.09.316-.09.489zm-.343-1.406c0-.087.044-.13.132-.13h.095c.093 0 .139.043.139.13v.394c.027-.046.067-.103.121-.172.054-.068.126-.134.217-.197.092-.063.204-.117.336-.16.132-.045.291-.067.476-.067.207 0 .399.042.579.126.18.084.337.198.471.344.134.144.24.315.317.512.076.196.115.406.115.628 0 .224-.039.433-.115.628-.077.196-.183.366-.317.512-.134.146-.292.262-.471.345-.18.084-.372.126-.579.126-.145 0-.278-.018-.398-.056-.121-.038-.23-.09-.323-.156-.095-.066-.179-.144-.25-.232-.071-.088-.13-.183-.18-.284v1.787c0 .038-.01.068-.034.09-.023.022-.057.034-.101.034h-.091c-.044 0-.078-.012-.103-.034-.024-.022-.036-.052-.036-.09V68.42zM90.898 69.86c0 .174.034.337.101.49.068.152.158.286.273.401.114.116.248.207.402.273.153.066.317.1.491.1.173 0 .336-.034.49-.1.156-.066.29-.157.404-.273.115-.115.205-.25.273-.401.067-.153.101-.316.101-.49 0-.175-.034-.34-.101-.494-.068-.154-.158-.29-.273-.403-.114-.115-.248-.206-.404-.273-.154-.068-.317-.101-.49-.101-.174 0-.338.033-.491.1-.154.068-.288.159-.402.274-.115.114-.205.249-.273.403-.067.154-.101.319-.101.493m-.347 0c0-.222.042-.432.126-.628.084-.197.2-.369.345-.515.144-.145.314-.26.51-.344.195-.084.404-.127.628-.127.222 0 .432.043.629.127.196.083.367.199.513.344.146.146.261.318.346.515.083.196.125.406.125.628 0 .223-.042.432-.125.628-.085.195-.2.366-.346.511-.146.147-.317.262-.513.346-.197.084-.407.126-.63.126-.223 0-.432-.042-.627-.126-.196-.084-.366-.2-.51-.346-.146-.145-.26-.316-.345-.511-.084-.196-.126-.405-.126-.628M97.292 68.939c-.067-.11-.158-.198-.271-.268-.114-.07-.243-.104-.388-.104-.09 0-.174.012-.25.038-.075.025-.14.06-.194.107-.055.046-.098.102-.128.166-.031.064-.046.134-.046.212 0 .076.02.142.058.2.039.058.088.108.147.148.059.042.123.076.194.103.07.027.137.05.2.066l.094.025c.154.042.292.094.415.155.123.06.227.13.314.21.086.078.152.166.198.262.047.097.07.2.07.313 0 .142-.03.27-.089.38-.058.112-.138.206-.238.282-.1.075-.215.133-.346.171-.131.04-.27.059-.415.059-.12 0-.235-.014-.345-.042-.11-.026-.213-.067-.306-.12-.094-.054-.175-.121-.242-.203-.069-.08-.12-.173-.154-.278-.006-.015-.009-.029-.009-.041 0-.017.007-.035.02-.056.014-.02.032-.035.055-.045l.12-.054c.02-.006.035-.01.047-.01.022 0 .04.007.055.02.014.012.027.028.037.047l.016.031c.034.068.078.128.134.18.056.053.116.097.183.133.066.035.133.062.201.08.069.018.131.027.188.027.076 0 .157-.011.243-.034.086-.021.165-.055.239-.1.074-.046.135-.103.183-.172.048-.07.073-.153.073-.249 0-.09-.025-.17-.073-.238-.048-.068-.11-.127-.186-.176-.075-.05-.16-.092-.252-.125-.093-.034-.183-.06-.271-.082-.11-.032-.218-.074-.326-.126-.108-.053-.205-.115-.29-.188-.085-.072-.154-.155-.207-.247-.052-.092-.078-.193-.078-.303 0-.128.023-.244.069-.35.046-.105.11-.195.193-.27.083-.077.184-.135.303-.176.119-.041.25-.061.396-.061.21 0 .4.045.569.135.17.091.309.231.418.423.01.025.015.046.015.063 0 .014-.004.03-.012.046-.009.015-.021.029-.038.04l-.11.065c-.03.02-.055.028-.076.028-.023 0-.04-.006-.05-.018l-.042-.054-.019-.025h.004zM100.848 71.076c.036 0 .067.01.093.03.026.02.039.051.039.093v.104c0 .049-.013.08-.042.098-.029.016-.063.025-.106.025h-.094c-.108 0-.207-.007-.3-.021-.092-.013-.172-.046-.24-.096-.067-.05-.12-.126-.158-.225-.04-.1-.06-.236-.06-.409V68.65h-.434c-.042 0-.074-.009-.093-.025-.02-.017-.03-.047-.03-.089v-.116c0-.042.01-.072.03-.088.02-.017.05-.026.093-.026h.435v-.93c0-.063.035-.1.104-.11l.157-.022c.042 0 .071.013.086.038s.021.056.021.094v.93h.546c.038 0 .068.01.09.029.022.018.033.049.033.091v.104c0 .042-.01.073-.033.091-.022.02-.052.03-.09.03h-.546v1.94c0 .112.008.198.023.26.015.063.038.11.07.14.03.032.07.052.117.062.048.01.105.018.172.024h.117zM102.957 68.45c0-.096.046-.145.139-.145h.07c.102 0 .153.049.153.145v.328c.03-.076.071-.145.125-.21.053-.064.115-.118.186-.164.07-.045.15-.08.237-.105.087-.025.18-.038.278-.038.064 0 .134.009.212.025.077.017.15.04.219.067.068.027.126.058.172.093.046.034.069.07.069.105 0 .021-.007.046-.019.073-.013.027-.028.053-.045.078-.019.025-.037.047-.056.063-.019.018-.034.026-.047.026l-.04-.002c-.01 0-.02-.006-.033-.014-.06-.038-.131-.073-.211-.104-.08-.032-.16-.047-.243-.047-.117 0-.225.027-.323.08-.098.054-.182.125-.251.214-.071.09-.127.192-.168.306-.041.114-.062.233-.062.354l.003 1.706c0 .076-.039.114-.116.114h-.129c-.08 0-.12-.038-.12-.114V68.45zM109.136 69.667c-.017-.15-.058-.29-.124-.421-.067-.131-.152-.245-.256-.342-.104-.096-.223-.173-.356-.228-.134-.056-.274-.084-.424-.084-.15 0-.29.027-.426.082-.134.055-.255.13-.36.227-.107.097-.196.21-.267.342-.072.131-.12.273-.142.424h2.355zm-1.103 1.456c.139 0 .272-.02.4-.061.128-.04.246-.102.353-.181l.091-.07c.034-.025.062-.04.086-.044.017 0 .035.008.054.025.018.017.036.037.053.061.016.025.031.052.042.081.012.03.018.056.018.082-.019.032-.044.06-.074.089-.03.026-.061.05-.09.071-.132.091-.275.162-.428.214-.154.051-.32.077-.499.077-.223 0-.432-.042-.629-.126-.196-.084-.368-.199-.514-.344-.146-.145-.26-.315-.346-.51-.083-.196-.125-.405-.125-.628 0-.223.04-.432.123-.629.082-.196.194-.367.334-.514.14-.146.305-.26.493-.344.189-.084.39-.127.604-.127.206 0 .4.04.582.12.182.08.34.19.477.331.137.14.245.307.325.5.08.192.12.4.12.622 0 .067-.02.11-.06.13-.04.021-.09.031-.151.031h-2.49c.012.162.053.313.124.452.07.14.161.26.274.363.112.102.242.182.388.241.146.06.301.088.465.088zM112.998 68.939c-.068-.11-.157-.198-.271-.268-.114-.07-.243-.104-.388-.104-.09 0-.174.012-.249.038-.076.025-.14.06-.195.107-.055.046-.097.102-.128.166-.031.064-.045.134-.045.212 0 .076.018.142.057.2.04.058.088.108.147.148.059.042.124.076.194.103.07.027.137.05.2.066l.094.025c.154.042.292.094.415.155.123.06.227.13.314.21.086.078.152.166.198.262.047.097.07.2.07.313 0 .142-.03.27-.088.38-.059.112-.139.206-.238.282-.1.075-.215.133-.347.171-.131.04-.27.059-.415.059-.12 0-.234-.014-.345-.042-.11-.026-.212-.067-.306-.12-.093-.054-.174-.121-.242-.203-.069-.08-.12-.173-.154-.278-.006-.015-.009-.029-.009-.041 0-.017.007-.035.02-.056.014-.02.033-.035.056-.045l.12-.054c.018-.006.035-.01.047-.01.02 0 .038.007.053.02.015.012.028.028.038.047l.016.031c.034.068.078.128.134.18.056.053.117.097.183.133.066.035.133.062.201.08.069.018.132.027.188.027.076 0 .157-.011.244-.034.085-.021.165-.055.239-.1.073-.046.134-.103.182-.172.049-.07.073-.153.073-.249 0-.09-.024-.17-.073-.238-.048-.068-.11-.127-.186-.176-.075-.05-.16-.092-.252-.125-.093-.034-.183-.06-.27-.082-.11-.032-.22-.074-.327-.126-.108-.053-.205-.115-.29-.188-.086-.072-.154-.155-.207-.247-.052-.092-.079-.193-.079-.303 0-.128.024-.244.07-.35.046-.105.11-.195.194-.27.083-.077.184-.135.302-.176.119-.041.251-.061.396-.061.21 0 .4.045.57.135.168.091.308.231.417.423.01.025.015.046.015.063 0 .014-.004.03-.012.046-.009.015-.021.029-.038.04l-.11.065c-.03.02-.055.028-.076.028-.023 0-.04-.006-.05-.018l-.042-.054-.019-.025h.004zM121.129 69.866c0-.173-.028-.336-.084-.489-.056-.154-.134-.288-.235-.404-.1-.115-.222-.206-.362-.274-.142-.067-.296-.1-.464-.1-.17 0-.326.033-.468.1-.142.068-.264.159-.366.273-.102.114-.181.248-.24.402-.057.153-.086.316-.086.488s.029.335.087.488c.058.152.138.285.241.398.103.113.225.203.367.27.142.066.297.1.465.1.166 0 .32-.034.46-.099.141-.065.262-.154.363-.266.1-.113.18-.245.237-.397.056-.153.085-.316.085-.49zm.359 1.424c0 .036-.011.064-.035.084-.023.02-.054.03-.094.03h-.101c-.084 0-.126-.042-.126-.126v-.55c-.038.119-.094.223-.167.314-.074.092-.16.17-.26.232-.1.064-.211.112-.333.146-.122.033-.252.05-.388.05-.214 0-.414-.042-.6-.126-.184-.084-.344-.199-.48-.344-.135-.145-.242-.315-.319-.51-.078-.196-.117-.405-.117-.628 0-.223.038-.432.115-.629.076-.196.183-.368.318-.515.136-.147.296-.263.481-.347.185-.083.386-.126.602-.126.138 0 .271.018.395.054.126.036.24.086.34.15.1.067.187.143.259.233.07.09.122.187.154.295l.012-.54c.002-.041.013-.074.032-.096.019-.022.05-.033.091-.033h.092c.037 0 .068.011.093.033.024.022.036.055.036.097v2.852zM123.682 68.45c0-.096.046-.145.139-.145h.069c.104 0 .155.049.155.145v.328c.03-.076.07-.145.124-.21.054-.064.116-.118.186-.164.07-.045.15-.08.237-.105.087-.025.18-.038.279-.038.062 0 .133.009.211.025.077.017.15.04.219.067.068.027.125.058.172.093.046.034.07.07.07.105 0 .021-.007.046-.02.073-.013.027-.028.053-.045.078-.018.025-.037.047-.056.063-.019.018-.034.026-.047.026l-.039-.002c-.01 0-.02-.006-.034-.014-.06-.038-.13-.073-.21-.104-.08-.032-.162-.047-.243-.047-.118 0-.226.027-.323.08-.098.054-.183.125-.253.214-.07.09-.126.192-.167.306-.041.114-.061.233-.061.354l.003 1.706c0 .076-.039.114-.117.114h-.129c-.08 0-.12-.038-.12-.114V68.45zM128.59 71.076c.036 0 .068.01.094.03.026.02.039.051.039.093v.104c0 .049-.014.08-.043.098-.028.016-.063.025-.105.025h-.095c-.107 0-.206-.007-.299-.021-.092-.013-.172-.046-.24-.096-.067-.05-.12-.126-.159-.225-.039-.1-.059-.236-.059-.409V68.65h-.434c-.043 0-.074-.009-.093-.025-.02-.017-.03-.047-.03-.089v-.116c0-.042.01-.072.03-.088.02-.017.05-.026.093-.026h.434v-.93c0-.063.035-.1.105-.11l.157-.022c.042 0 .07.013.085.038s.022.056.022.094v.93h.546c.038 0 .068.01.09.029.022.018.033.049.033.091v.104c0 .042-.011.073-.033.091-.022.02-.052.03-.09.03h-.546v1.94c0 .112.008.198.023.26.014.063.038.11.069.14.032.032.07.052.118.062.047.01.105.018.172.024h.117zM133.118 69.667c-.017-.15-.058-.29-.125-.421-.066-.131-.15-.245-.255-.342-.104-.096-.223-.173-.356-.228-.134-.056-.275-.084-.424-.084-.15 0-.291.027-.426.082-.134.055-.255.13-.36.227-.107.097-.196.21-.267.342-.072.131-.12.273-.142.424h2.355zm-1.103 1.456c.138 0 .272-.02.4-.061.129-.04.246-.102.353-.181l.091-.07c.034-.025.062-.04.086-.044.016 0 .034.008.053.025.02.017.037.037.054.061.016.025.031.052.042.081.012.03.018.056.018.082-.02.032-.044.06-.074.089-.03.026-.061.05-.09.071-.133.091-.276.162-.429.214-.154.051-.32.077-.498.077-.223 0-.432-.042-.63-.126-.195-.084-.367-.199-.513-.344-.146-.145-.26-.315-.345-.51-.084-.196-.126-.405-.126-.628 0-.223.041-.432.123-.629.082-.196.193-.367.334-.514.14-.146.305-.26.494-.344.187-.084.388-.127.603-.127.206 0 .4.04.582.12.182.08.34.19.477.331.137.14.245.307.325.5.08.192.12.4.12.622 0 .067-.02.11-.06.13-.04.021-.09.031-.152.031h-2.49c.013.162.054.313.124.452.071.14.163.26.275.363.112.102.241.182.388.241.146.06.301.088.465.088zM136.98 68.939c-.068-.11-.158-.198-.271-.268-.113-.07-.243-.104-.388-.104-.09 0-.174.012-.25.038-.075.025-.14.06-.195.107-.054.046-.097.102-.127.166-.031.064-.046.134-.046.212 0 .076.02.142.058.2.039.058.088.108.147.148.059.042.123.076.194.103.07.027.137.05.2.066l.095.025c.153.042.292.094.414.155.123.06.227.13.314.21.086.078.152.166.199.262.045.097.069.2.069.313 0 .142-.03.27-.088.38-.059.112-.14.206-.239.282-.099.075-.215.133-.347.171-.13.04-.269.059-.414.059-.12 0-.235-.014-.345-.042-.11-.026-.213-.067-.306-.12-.094-.054-.174-.121-.243-.203-.068-.08-.119-.173-.152-.278-.007-.015-.01-.029-.01-.041 0-.017.007-.035.02-.056.014-.02.032-.035.055-.045l.12-.054c.019-.006.035-.01.047-.01.022 0 .039.007.054.02.015.012.028.028.038.047l.015.031c.035.068.08.128.135.18.055.053.117.097.183.133.066.035.133.062.202.08.068.018.13.027.187.027.076 0 .157-.011.243-.034.086-.021.166-.055.24-.1.073-.046.134-.103.182-.172.048-.07.073-.153.073-.249 0-.09-.025-.17-.073-.238-.048-.068-.11-.127-.186-.176-.075-.05-.16-.092-.252-.125-.092-.034-.183-.06-.271-.082-.109-.032-.218-.074-.326-.126-.108-.053-.205-.115-.29-.188-.086-.072-.155-.155-.207-.247-.052-.092-.079-.193-.079-.303 0-.128.023-.244.07-.35.046-.105.11-.195.193-.27.083-.077.185-.135.303-.176.118-.041.251-.061.396-.061.21 0 .4.045.569.135.169.091.308.231.418.423.01.025.016.046.016.063 0 .014-.005.03-.013.046-.01.015-.021.029-.039.04l-.11.065c-.03.02-.054.028-.075.028-.024 0-.04-.006-.05-.018-.01-.013-.025-.03-.042-.054l-.018-.025h.002zM141.873 69.866c0-.173-.028-.336-.084-.489-.056-.154-.134-.288-.234-.404-.102-.115-.223-.206-.364-.274-.14-.067-.295-.1-.463-.1-.17 0-.327.033-.468.1-.141.068-.263.159-.365.273-.102.114-.183.248-.24.402-.058.153-.087.316-.087.488s.03.335.087.488c.057.152.138.285.24.398.104.113.226.203.368.27.142.066.297.1.465.1.167 0 .32-.034.46-.099.141-.065.262-.154.363-.266.101-.113.18-.245.236-.397.057-.153.086-.316.086-.49zm.36 1.424c0 .036-.013.064-.036.084-.023.02-.055.03-.094.03H142c-.083 0-.125-.042-.125-.126v-.55c-.038.119-.094.223-.168.314-.073.092-.16.17-.26.232-.099.064-.21.112-.332.146-.122.033-.251.05-.388.05-.214 0-.414-.042-.599-.126-.184-.084-.345-.199-.48-.344-.136-.145-.243-.315-.32-.51-.078-.196-.117-.405-.117-.628 0-.223.038-.432.115-.629.076-.196.183-.368.319-.515.135-.147.295-.263.48-.347.185-.083.386-.126.602-.126.139 0 .27.018.396.054.125.036.238.086.34.15.1.067.186.143.258.233.07.09.122.187.154.295l.012-.54c.003-.041.013-.074.032-.096.019-.022.05-.033.091-.033h.092c.038 0 .069.011.093.033.024.022.037.055.037.097v2.852zM144.792 71.284c0 .076-.04.113-.117.113h-.129c-.08 0-.12-.037-.12-.113v-2.887c0-.03.009-.054.025-.073.017-.019.041-.028.073-.028h.186c.019 0 .035.006.048.019.015.012.022.03.024.05l.01.429c.052-.078.114-.15.186-.218.071-.067.15-.125.237-.174.085-.05.177-.089.275-.117.098-.029.2-.043.307-.043.181 0 .35.034.503.101.155.067.29.16.403.277.113.118.202.256.268.415.065.159.097.328.097.509v1.728c0 .041-.011.073-.033.094-.022.02-.052.031-.09.031h-.13c-.041 0-.07-.01-.087-.03-.018-.02-.025-.05-.025-.093v-1.736c-.003-.13-.029-.253-.08-.366-.05-.114-.118-.212-.202-.296-.086-.085-.185-.15-.298-.199-.114-.048-.235-.072-.363-.072-.126 0-.246.023-.361.069-.115.046-.216.11-.304.19-.089.082-.16.177-.213.287-.054.111-.083.23-.09.358v1.775zM151.605 69.866c0-.173-.028-.336-.084-.489-.056-.154-.134-.288-.235-.404-.1-.115-.222-.206-.362-.274-.141-.067-.295-.1-.464-.1-.17 0-.326.033-.468.1-.141.068-.264.159-.366.273-.101.114-.181.248-.239.402-.058.153-.087.316-.087.488s.029.335.087.488c.058.152.138.285.241.398.103.113.225.203.367.27.142.066.298.1.465.1.166 0 .32-.034.46-.099.141-.065.262-.154.363-.266.101-.113.18-.245.237-.397.056-.153.085-.316.085-.49zm.36 1.424c0 .036-.012.064-.036.084-.023.02-.054.03-.094.03h-.101c-.084 0-.126-.042-.126-.126v-.55c-.037.119-.094.223-.167.314-.074.092-.16.17-.26.232-.1.064-.211.112-.332.146-.123.033-.252.05-.389.05-.214 0-.414-.042-.599-.126-.185-.084-.345-.199-.48-.344-.136-.145-.243-.315-.32-.51-.078-.196-.117-.405-.117-.628 0-.223.038-.432.115-.629.077-.196.183-.368.319-.515.135-.147.295-.263.48-.347.185-.083.386-.126.602-.126.139 0 .271.018.396.054.125.036.238.086.339.15.1.067.187.143.259.233.07.09.122.187.154.295l.012-.54c.002-.041.013-.074.032-.096.019-.022.05-.033.091-.033h.092c.037 0 .069.011.093.033.024.022.036.055.036.097v2.852zM154.184 66.83c0-.036.011-.063.033-.084.022-.02.05-.03.086-.03h.098c.038 0 .066.01.084.03.017.02.029.048.033.084l.011.17c.003.061.004.123.004.186v4.098c0 .075-.038.113-.116.113h-.11c-.083 0-.123-.038-.123-.113V66.83zM159.291 69.667c-.017-.15-.058-.29-.125-.421-.066-.131-.15-.245-.255-.342-.104-.096-.223-.173-.356-.228-.134-.056-.275-.084-.424-.084-.15 0-.29.027-.426.082-.134.055-.255.13-.36.227-.107.097-.196.21-.267.342-.072.131-.119.273-.142.424h2.355zm-1.103 1.456c.139 0 .272-.02.4-.061.128-.04.246-.102.353-.181l.091-.07c.034-.025.062-.04.086-.044.017 0 .034.008.053.025.019.017.037.037.054.061.017.025.03.052.042.081.012.03.018.056.018.082-.02.032-.044.06-.074.089-.031.026-.061.05-.09.071-.133.091-.276.162-.429.214-.154.051-.32.077-.498.077-.223 0-.432-.042-.63-.126-.196-.084-.367-.199-.513-.344-.146-.145-.261-.315-.346-.51-.083-.196-.125-.405-.125-.628 0-.223.04-.432.123-.629.082-.196.193-.367.334-.514.14-.146.305-.26.494-.344.187-.084.388-.127.603-.127.206 0 .4.04.582.12.182.08.34.19.477.331.137.14.245.307.325.5.08.192.12.4.12.622 0 .067-.02.11-.06.13-.04.021-.09.031-.152.031h-2.49c.013.162.054.313.125.452.07.14.16.26.274.363.112.102.242.182.388.241.145.06.3.088.465.088zM163.153 68.939c-.068-.11-.157-.198-.271-.268-.114-.07-.243-.104-.388-.104-.09 0-.174.012-.249.038-.075.025-.14.06-.195.107-.055.046-.097.102-.128.166-.031.064-.045.134-.045.212 0 .076.018.142.057.2.04.058.088.108.147.148.059.042.124.076.194.103.07.027.137.05.2.066l.094.025c.154.042.292.094.415.155.123.06.227.13.314.21.086.078.152.166.198.262.047.097.07.2.07.313 0 .142-.03.27-.088.38-.059.112-.139.206-.238.282-.1.075-.215.133-.347.171-.131.04-.27.059-.415.059-.12 0-.234-.014-.345-.042-.11-.026-.212-.067-.306-.12-.093-.054-.174-.121-.242-.203-.069-.08-.12-.173-.154-.278-.006-.015-.008-.029-.008-.041 0-.017.006-.035.02-.056.013-.02.032-.035.055-.045l.12-.054c.018-.006.035-.01.047-.01.021 0 .038.007.053.02.015.012.028.028.038.047l.016.031c.034.068.078.128.134.18.056.053.117.097.183.133.066.035.133.062.201.08.069.018.132.027.188.027.076 0 .157-.011.244-.034.085-.021.165-.055.239-.1.073-.046.134-.103.182-.172.049-.07.073-.153.073-.249 0-.09-.024-.17-.073-.238-.048-.068-.11-.127-.186-.176-.075-.05-.16-.092-.252-.125-.093-.034-.183-.06-.27-.082-.11-.032-.22-.074-.327-.126-.108-.053-.205-.115-.29-.188-.086-.072-.154-.155-.207-.247-.052-.092-.078-.193-.078-.303 0-.128.023-.244.069-.35.046-.105.11-.195.194-.27.083-.077.184-.135.302-.176.119-.041.251-.061.396-.061.21 0 .4.045.57.135.168.091.308.231.417.423.01.025.015.046.015.063 0 .014-.004.03-.012.046-.009.015-.021.029-.038.04l-.11.065c-.03.02-.055.028-.076.028-.023 0-.04-.006-.05-.018l-.042-.054-.019-.025h.004z" transform="translate(-618 -40) translate(618 40)"/>
                <path fill="#FF6B9C" d="M98.716 7.72c-1.637 0-2.97 1.331-2.97 2.969 0 1.637 1.333 2.97 2.97 2.97l.105-.003c-.462-.709-.703-1.521-.703-2.375 0-1.316.592-2.554 1.602-3.384-.322-.118-.658-.177-1.004-.177m7.463 5.936l.105.002c1.637 0 2.97-1.332 2.97-2.97 0-1.637-1.333-2.968-2.97-2.968-.345 0-.682.059-1.004.177 1.01.83 1.602 2.068 1.602 3.384 0 .854-.24 1.666-.703 2.375m3.842-.687c.612.115 1.192.363 1.706.727.16-.37.244-.773.244-1.178 0-1.012-.52-1.947-1.356-2.49.034.22.051.441.051.66 0 .813-.221 1.593-.645 2.28m-15.636-2.94c-.836.543-1.356 1.478-1.356 2.49 0 .405.083.808.244 1.178.514-.364 1.094-.612 1.706-.727-.423-.688-.645-1.468-.645-2.28 0-.22.017-.44.051-.66m8.115-1.717c-1.637 0-2.97 1.332-2.97 2.97 0 1.636 1.333 2.969 2.97 2.969 1.637 0 2.97-1.333 2.97-2.97 0-1.637-1.333-2.97-2.97-2.97m2.292 6.699c1.096.675 1.85 1.808 2.041 3.075 1.104-.458 1.828-1.528 1.828-2.74 0-.306-.046-.605-.138-.894-.678.406-1.446.62-2.24.62-.436 0-.869-.066-1.286-.194-.067.045-.135.09-.205.133m-8.316-.559c-.09.289-.137.588-.137.894 0 1.212.724 2.282 1.828 2.74.191-1.267.946-2.4 2.04-3.075-.069-.043-.137-.088-.203-.133-.418.128-.85.194-1.288.194-.793 0-1.561-.214-2.24-.62m12.753 3.475c.654.49 1.163 1.157 1.46 1.915.91-.529 1.487-1.511 1.487-2.568 0-1.345-.926-2.521-2.204-2.864.068.307.102.62.102.936 0 .926-.298 1.834-.845 2.58M95.028 14.41c-1.278.343-2.204 1.52-2.204 2.864 0 1.057.576 2.04 1.487 2.568.297-.758.806-1.425 1.46-1.915-.547-.747-.845-1.655-.845-2.581 0-.316.034-.63.102-.936m7.472 1.359c-1.637 0-2.97 1.332-2.97 2.97 0 1.637 1.333 2.968 2.97 2.968 1.637 0 2.97-1.331 2.97-2.969 0-1.637-1.333-2.97-2.97-2.97m-5.701 3.166c-.852.545-1.375 1.49-1.375 2.5 0 1.54 1.19 2.817 2.697 2.956l-.003-.18c0-.998.341-1.962.964-2.74-.444-.551-.743-1.195-.879-1.885-.504-.132-.975-.35-1.404-.65m9.12 2.536c.623.777.963 1.741.963 2.738 0 .06 0 .12-.003.181 1.508-.139 2.698-1.417 2.698-2.955 0-1.01-.524-1.956-1.376-2.5-.428.3-.9.518-1.404.65-.136.69-.435 1.334-.879 1.886m-5.783.95c-.391.514-.605 1.143-.605 1.788 0 1.637 1.333 2.97 2.97 2.97 1.637 0 2.97-1.333 2.97-2.97 0-.645-.214-1.274-.605-1.789-.708.46-1.52.7-2.365.7-.845 0-1.657-.24-2.365-.7m2.365 6.17c-1.81 0-3.416-1.104-4.074-2.774h-.033c-2.417 0-4.383-1.966-4.383-4.381 0-.053.002-.105.004-.158-1.586-.705-2.602-2.26-2.602-4.003 0-.916.28-1.789.812-2.533-.399-.674-.608-1.439-.608-2.222 0-2.073 1.457-3.862 3.478-4.287.814-1.194 2.173-1.924 3.622-1.924.901 0 1.763.271 2.5.786.416-.129.847-.194 1.284-.194.437 0 .868.065 1.284.194.737-.515 1.599-.786 2.5-.786 1.449 0 2.808.73 3.622 1.924 2.02.425 3.478 2.214 3.478 4.287 0 .783-.21 1.548-.607 2.222.531.744.811 1.617.811 2.533 0 1.744-1.016 3.298-2.602 4.003.003.053.004.105.004.158 0 2.415-1.966 4.382-4.383 4.382l-.033-.001c-.658 1.67-2.264 2.775-4.074 2.775M94.813 2.48c-.144-.385-.035-.807.275-1.076.178-.154.404-.238.636-.238.163 0 .325.042.47.121l3.423 1.88L101.44.553c.242-.346.638-.553 1.06-.553.422 0 .818.207 1.06.553l1.823 2.614 3.424-1.88c.144-.079.307-.121.47-.121.231 0 .457.084.635.238.31.269.418.691.275 1.076l-1.373 3.682-1.324-.493.96-2.574-2.734 1.5c-.144.08-.305.121-.468.121-.318 0-.616-.156-.798-.417l-1.95-2.796-1.95 2.796c-.181.261-.48.417-.798.417-.163 0-.325-.042-.468-.12L96.55 3.095l.96 2.574-1.324.493-1.373-3.682z" transform="translate(-618 -40) translate(618 40)"/>
                <path fill="#000" d="M10.159 58.837c.545.065 1.179.113 1.901.145.722.032 1.517.048 2.383.048 1.09 0 2.174-.055 3.25-.169 1.075-.112 2.102-.352 3.082-.721.978-.37 1.893-.898 2.744-1.589.85-.69 1.612-1.596 2.287-2.72 1.027-1.733 1.74-3.506 2.142-5.32.4-1.812.602-3.793.602-5.944 0-2.534-.241-4.837-.722-6.907-.482-2.07-1.276-3.835-2.384-5.295-1.107-1.46-2.576-2.591-4.405-3.394-1.83-.802-4.092-1.203-6.788-1.203-.803 0-1.533.016-2.19.047l-1.902.097v32.925zM0 58.837h5.344V25.912H0v-.674h8.955c.45 0 .898-.007 1.348-.024.449-.016.898-.04 1.348-.072.449 0 .898-.008 1.348-.024.45-.016.898-.024 1.348-.024.963 0 1.821.016 2.576.048.753.032 1.46.089 2.118.168.658.081 1.284.193 1.877.337.594.144 1.229.33 1.902.554 1.958.642 3.651 1.5 5.08 2.575 1.428 1.076 2.6 2.319 3.514 3.73.915 1.413 1.59 2.954 2.023 4.622.433 1.67.65 3.418.65 5.247 0 2.118-.258 4.02-.771 5.704-.514 1.684-1.22 3.177-2.118 4.477-.9 1.3-1.95 2.423-3.154 3.37-1.203.946-2.496 1.708-3.876 2.285-.77.354-1.5.626-2.19.82-.69.191-1.396.336-2.118.433-.723.095-1.517.16-2.383.192-.867.031-1.862.048-2.985.048-.482 0-.996-.008-1.54-.024-.547-.017-1.093-.041-1.638-.072-.546-.033-1.083-.057-1.613-.073-.53-.016-1.035-.024-1.517-.024H0v-.674zM54.74 46.9c.064-.45.097-.867.097-1.252v-1.203c0-1.091-.105-1.99-.313-2.696-.21-.706-.498-1.267-.867-1.684-.369-.418-.819-.714-1.348-.892-.53-.176-1.1-.264-1.71-.264-1.09 0-1.99.217-2.695.65-.706.433-1.268 1.02-1.686 1.757-.417.738-.73 1.589-.938 2.551-.21.963-.346 1.974-.41 3.033h9.87zm-9.918.674c0 .321-.008.65-.024.986-.016.338-.024.763-.024 1.275 0 1.06.064 2.167.193 3.322.128 1.156.409 2.2.842 3.13.434.93 1.075 1.7 1.926 2.31.85.61 1.981.915 3.394.915s2.576-.21 3.49-.626c.916-.417 1.638-.923 2.168-1.517.53-.593.922-1.195 1.179-1.805.256-.609.45-1.107.578-1.492l.722.145c-.096.353-.281.858-.554 1.516s-.707 1.316-1.3 1.973c-.594.658-1.396 1.236-2.407 1.733-1.011.498-2.32.747-3.924.747-1.605 0-3.089-.258-4.453-.77-1.365-.514-2.544-1.252-3.539-2.215-.995-.963-1.766-2.11-2.31-3.442-.547-1.331-.819-2.816-.819-4.453 0-1.411.28-2.783.842-4.115.561-1.331 1.332-2.51 2.311-3.538.979-1.027 2.126-1.854 3.443-2.48 1.316-.625 2.727-.938 4.236-.938.898 0 1.862.16 2.89.482 1.025.32 1.98.842 2.864 1.564.882.722 1.62 1.677 2.215 2.864.593 1.188.89 2.664.89 4.429H44.822zM64.562 52.772h.53c.224.77.512 1.549.866 2.335.353.787.826 1.508 1.42 2.166.594.658 1.325 1.196 2.19 1.613.868.417 1.91.626 3.13.626 1.027 0 1.942-.313 2.744-.94.803-.625 1.204-1.644 1.204-3.056 0-1.22-.313-2.077-.938-2.575-.627-.497-1.357-.89-2.191-1.18l-3.755-1.299c-.482-.16-1.004-.361-1.566-.602-.56-.24-1.083-.578-1.564-1.01-.48-.434-.875-.987-1.18-1.661-.305-.674-.457-1.54-.457-2.6 0-.898.176-1.733.53-2.503.352-.77.834-1.444 1.444-2.021.61-.579 1.34-1.027 2.19-1.348.85-.321 1.774-.482 2.769-.482.706 0 1.276.056 1.709.169.433.112.81.224 1.131.337.32.112.61.224.867.337.257.112.562.168.915.168s.61-.128.77-.385h.53v5.487h-.53c-.225-.705-.481-1.388-.77-2.046-.289-.657-.635-1.243-1.035-1.756-.402-.513-.9-.915-1.493-1.204-.594-.289-1.292-.433-2.094-.433-1.54 0-2.736.345-3.587 1.035-.85.69-1.276 1.612-1.276 2.768 0 1.027.362 1.805 1.083 2.334.723.53 1.789 1.02 3.203 1.469l3.514 1.155c1.508.513 2.744 1.22 3.707 2.118.963.898 1.444 2.086 1.444 3.562 0 .867-.168 1.717-.505 2.551-.337.835-.835 1.564-1.493 2.19-.658.626-1.46 1.132-2.407 1.516-.947.386-2.03.579-3.25.579-.707 0-1.356-.073-1.95-.218-.594-.143-1.14-.297-1.637-.456-.497-.16-.954-.313-1.372-.458-.417-.144-.802-.216-1.156-.216-.352 0-.609.072-.77.216-.16.145-.288.297-.385.458h-.53v-6.74zM83.723 58.837L87.43 58.837 87.43 39.535 83.723 39.535 83.723 38.861 91.571 38.861 91.571 58.837 95.278 58.837 95.278 59.511 83.723 59.511zM97.925 58.837h3.708V39.535h-3.708v-.674h7.752v4.862h.096c.128-.482.337-1.027.627-1.637.288-.61.689-1.195 1.203-1.757.513-.561 1.131-1.035 1.853-1.42.723-.385 1.597-.578 2.624-.578.738 0 1.38.12 1.926.362.546.24.994.545 1.348.914.353.369.61.794.77 1.276.16.48.241.963.241 1.444 0 1.059-.24 1.765-.722 2.118s-1.043.529-1.685.529c-1.413 0-2.118-.449-2.118-1.348 0-.288.031-.521.096-.697.064-.177.137-.353.216-.53.08-.176.152-.377.218-.602.063-.224.095-.545.095-.962 0-1.027-.562-1.54-1.685-1.54-.514 0-1.059.191-1.636.577-.578.385-1.116.946-1.614 1.684-.497.739-.914 1.63-1.251 2.672-.337 1.043-.506 2.239-.506 3.586v11.023h4.188v.674H97.925v-.674zM133.167 46.9c.065-.45.097-.867.097-1.252v-1.203c0-1.091-.105-1.99-.313-2.696-.21-.706-.498-1.267-.866-1.684-.37-.418-.82-.714-1.349-.892-.529-.176-1.1-.264-1.71-.264-1.09 0-1.99.217-2.695.65-.706.433-1.268 1.02-1.685 1.757-.417.738-.73 1.589-.939 2.551-.21.963-.346 1.974-.409 3.033h9.87zm-9.918.674c0 .321-.007.65-.023.986-.017.338-.024.763-.024 1.275 0 1.06.064 2.167.192 3.322.128 1.156.41 2.2.843 3.13.433.93 1.075 1.7 1.925 2.31.85.61 1.982.915 3.395.915 1.412 0 2.575-.21 3.49-.626.915-.417 1.637-.923 2.167-1.517.53-.593.922-1.195 1.18-1.805.256-.609.449-1.107.577-1.492l.722.145c-.096.353-.281.858-.554 1.516s-.706 1.316-1.3 1.973c-.594.658-1.396 1.236-2.406 1.733-1.012.498-2.32.747-3.924.747-1.606 0-3.09-.258-4.454-.77-1.365-.514-2.544-1.252-3.539-2.215-.995-.963-1.765-2.11-2.31-3.442-.547-1.331-.819-2.816-.819-4.453 0-1.411.281-2.783.842-4.115.562-1.331 1.332-2.51 2.311-3.538.98-1.027 2.127-1.854 3.443-2.48 1.316-.625 2.727-.938 4.237-.938.898 0 1.86.16 2.89.482 1.025.32 1.98.842 2.863 1.564.882.722 1.62 1.677 2.215 2.864.593 1.188.89 2.664.89 4.429H123.25zM155.989 26.008c.64-.77 1.098-1.283 1.371-1.54.273-.257.634-.385 1.084-.385.45 0 .834.169 1.154.506.322.337.483.73.483 1.179 0 .353-.105.625-.313.818-.21.193-.394.354-.554.482l-8.233 5.872h-.674l5.682-6.932zm1.25 20.892c.065-.45.098-.867.098-1.252v-1.203c0-1.091-.105-1.99-.314-2.696-.209-.705-.498-1.267-.866-1.685-.37-.417-.819-.714-1.348-.89-.53-.176-1.1-.265-1.71-.265-1.091 0-1.99.216-2.695.65-.707.433-1.269 1.019-1.686 1.756-.417.74-.73 1.59-.938 2.552-.21.963-.346 1.974-.41 3.033h9.87zm-9.917.673c0 .322-.008.65-.024.987-.016.337-.024.763-.024 1.276 0 1.06.064 2.166.193 3.322.128 1.155.41 2.198.843 3.128.432.931 1.075 1.702 1.925 2.311.85.61 1.982.915 3.394.915 1.412 0 2.576-.21 3.49-.627.915-.416 1.638-.921 2.168-1.516.529-.593.921-1.195 1.179-1.805.257-.609.45-1.107.578-1.492l.721.144c-.095.354-.28.86-.553 1.517-.273.658-.707 1.316-1.3 1.973-.594.658-1.396 1.236-2.407 1.733-1.012.497-2.319.746-3.924.746s-3.09-.257-4.453-.77c-1.365-.513-2.544-1.251-3.54-2.214-.995-.963-1.765-2.11-2.31-3.442-.546-1.331-.818-2.816-.818-4.452 0-1.412.28-2.784.843-4.116.56-1.331 1.33-2.511 2.31-3.538.98-1.027 2.126-1.854 3.442-2.48 1.316-.625 2.728-.938 4.237-.938.898 0 1.861.16 2.89.482 1.026.321 1.98.842 2.863 1.564.883.722 1.62 1.677 2.215 2.864.594 1.187.892 2.664.892 4.428h-14.83zM165.618 58.837L170.962 58.837 170.962 25.912 165.618 25.912 165.618 25.238 176.45 25.238 185.357 51.136 185.453 51.136 194.36 25.238 205 25.238 205 25.912 199.656 25.912 199.656 58.837 205 58.837 205 59.511 189.497 59.511 189.497 58.837 194.841 58.837 194.841 26.201 194.745 26.201 183.239 59.559 171.78 26.538 171.684 26.538 171.684 58.837 177.027 58.837 177.027 59.511 165.618 59.511z" transform="translate(-618 -40) translate(618 40)"/>
                <path fill="#FF6B9C" d="M94.964 79.779l15.072.22c1.284.02 1.284-1.974 0-1.994l-15.072-.22c-1.285-.02-1.285 1.975 0 1.994" transform="translate(-618 -40) translate(618 40)"/>
            </g>
        </g>
    </g>
</svg>
