<svg xmlns="http://www.w3.org/2000/svg" width="24" height="24" viewBox="0 0 24 24">
    <g fill="none" fill-rule="evenodd">
        <g stroke="#F79DB8" stroke-width="2">
            <g>
                <g>
                    <path d="M6.6 18.6c.33 0 .63.136.847.353.217.218.353.517.353.847 0 .33-.136.63-.353.847-.218.217-.517.353-.847.353-.328 0-.623-.135-.838-.35-.217-.218-.351-.519-.351-.85 0-.331.134-.632.351-.85.215-.215.51-.35.838-.35zM5.538 14.853l13.262.416-12.2.231c-.33 0-.63-.136-.847-.353-.062-.062-.117-.131-.165-.205l-.05-.089zM2.962 1l1.034 2.2H20.9l-3.847 7.286c-.102.187-.254.342-.436.449-.18.106-.39.165-.612.165h0H7.22l-1.815 3.287L5.4 14.3c0-.165.033-.323.095-.463l.051-.102 1.737-3.152L2.833 1.2H1L2.962 1zM17.6 18.6c.33 0 .63.136.847.353.217.218.353.517.353.847 0 .33-.136.63-.353.847-.218.217-.517.353-.847.353-.328 0-.623-.135-.838-.35-.217-.218-.351-.519-.351-.85 0-.331.134-.632.351-.85.215-.215.51-.35.838-.35z" transform="translate(-1255 -50) translate(1255 50) translate(1 1)"/>
                </g>
            </g>
        </g>
    </g>
</svg>
