<?xml version="1.0" encoding="utf-8"?>
<!-- Generator: Adobe Illustrator 25.1.0, SVG Export Plug-In . SVG Version: 6.00 Build 0)  -->
<svg version="1.1" id="Capa_1" xmlns="http://www.w3.org/2000/svg" xmlns:xlink="http://www.w3.org/1999/xlink" x="0px" y="0px"
	 viewBox="0 0 1366 768" style="enable-background:new 0 0 1366 768;" xml:space="preserve">
<style type="text/css">
	.st0{fill:#FFFFCC;}
</style>
<g>
	<path class="st0" d="M109.1,603.8c49.8,2.2,89.5,46.1,139.1,51.6c57.5,6.4,109.2-40.1,167-41.3c65.9-1.3,124.6,56.2,189.9,47.2
		c42.7-5.9,76.9-39.2,118.8-49.6c82.4-20.4,164.6,52.3,248.3,38.4c34-5.6,63.9-25.1,96.3-36.7s73-13.5,97,11.1
		c10.9,11.1,42.2,28.5,57.5,25.3c23.2-4.9,25.2-10.9,35-16c41.1-21.2,61.2-13.3,108-13.1V0H0v633.6C36.9,625,71.2,602.2,109.1,603.8
		z"/>
</g>
</svg>
